<svg width="12" height="8" viewBox="0 0 12 8" fill="none" xmlns="http://www.w3.org/2000/svg">
<path d="M5.14111 6.8125L0.625488 2.29688C0.47054 2.14193 0.393066 1.95378 0.393066 1.73242C0.393066 1.51107 0.47054 1.32292 0.625488 1.16797L1.38916 0.4375C1.54411 0.282552 1.73226 0.205078 1.95361 0.205078C2.17497 0.205078 2.36312 0.282552 2.51807 0.4375L5.70557 3.625L8.89307 0.4375C9.04801 0.282552 9.23617 0.205078 9.45752 0.205078C9.67887 0.205078 9.86702 0.282552 10.022 0.4375L10.7856 1.16797C10.9406 1.32292 11.0181 1.51107 11.0181 1.73242C11.0181 1.95378 10.9406 2.14193 10.7856 2.29688L6.27002 6.8125C6.11507 6.96745 5.92692 7.04492 5.70557 7.04492C5.48421 7.04492 5.29606 6.96745 5.14111 6.8125Z" fill="#5C5C5B"/>
</svg>
